<svg enable-background="new 0 0 850 240" viewBox="0 0 850 240" xmlns="http://www.w3.org/2000/svg"><path d="m234.2 112.6c.1-1.6-.1-3.1-.4-4.5l-9.6-41.5c-2.2-9.2-4.2-13.3-20.1-21.4-12.5-6.3-39.6-16.8-47.6-16.8-7.5 0-9.6 9.5-18.6 9.5s-14.9-7-23.1-7c-8.1 0-12.7 5.2-16.5 15.9 0 0-10.8 30.4-12.2 34.9-.2.8-.3 1.6-.3 2.5 0 11.8 45.8 50.7 109 50.7 16 0 39.4-3.2 39.4-22.3zm2.4 7.5c1.1 4.3 1.9 8.6 2.2 13 0 18-20.2 28-46.8 28-60 0-112.4-35.1-112.4-58.4 0-3.3.7-6.5 2-9.6-21.4 1.4-49.6 5.4-49.6 29.9 0 40.4 95.6 90.2 171.5 90.2 58 0 72.7-26.3 72.7-47.1 0-16.3-14-34.8-39.5-45.9" fill="#e00"/><path d="m236.7 120.2c1.2 4.3 1.9 8.6 2.2 13 0 18-20.2 28-46.8 28-60 0-112.5-35.1-112.5-58.4 0-3.3.6-6.5 2-9.6l4.6-11.4-.3 2.4c0 11.9 46.6 50.7 109 50.7 15.9 0 39.3-4.1 39.3-22.3 0-1.6-.1-3.1-.4-4.5z"/><path d="m775.2 146.7c0 15.3 9.2 22.8 26 22.8 5.2-.1 10.3-.9 15.3-2.2v-17.7c-3.2 1-6.5 1.5-9.9 1.5-6.9 0-9.4-2.2-9.4-8.7v-27.2h20v-18.2h-20v-23.1l-22 4.7v18.4h-14.4v18.2h14.4zm-61.8 23c7.7 0 13.9-1.6 19.7-5.5v4.3h21.6v-45.8c0-17.5-11.7-27-31.3-27-11.6.1-23 2.8-33.4 7.8l7.8 16.1c6.8-3.3 14.2-5.3 21.7-5.7 9 0 13.6 3.5 13.6 10.7v3.5c-5.3-1.4-10.7-2.1-16.2-2-18.4 0-29.5 7.7-29.5 21.5 0 12.5 10 22.1 26 22.1zm-5.2-22.6c0-4.7 4.8-7 11.9-7 4.8 0 9.1.7 13 1.6v9.2c-4 2.3-8.8 3.4-13.6 3.4-7.1 0-11.3-2.7-11.3-7.2zm-112.4 21.4h23.3v-37h38.9v37h23.3v-94.6h-23.3v36.3h-38.9v-36.3h-23.3zm-54.8 0h21.6v-99.4l-21.9 4.9v26.9c-5.5-3.2-11.8-4.8-18.2-4.8-20.8 0-37.2 16.1-37.2 36.7-.2 20.1 15.9 36.6 36 36.8h.5c6.9 0 13.6-2.2 19.2-6.3v5.3zm-34.2-35.8c-.1-9.9 7.9-18.1 17.9-18.1h.9c5.9 0 11.3 2 15.1 5.5v25c-3.9 3.8-9 5.7-15.1 5.7-10 .4-18.4-7.4-18.8-17.4 0-.2 0-.5 0-.7zm-101.3.1c0 20.8 17 37.1 38.9 37.1 12.1 0 20.8-3.3 29.9-10.9l-14.5-12.8c-3.8 3.7-9 5.7-14.3 5.4-8.1 0-14.7-4.5-17.6-11.3h51v-5.5c0-22.7-15.3-39-36.1-39-21 0-37.3 16.2-37.3 37zm36.9-19.2c6.9 0 12.7 4.5 15 11.4h-29.9c2.2-7.2 7.6-11.4 14.9-11.4zm-121 54.9h23.3v-34.5h17.7l17.8 34.5h26l-20.7-37.8c10.7-4.5 17.7-15.1 17.7-26.7 0-17-13.4-30.1-33.4-30.1h-48.4zm46.3-74.8c7.7 0 12 5 12 10.7 0 5.8-4.3 10.7-12 10.7h-23v-21.4z" fill="#fff"/></svg>