<?xml version="1.0" encoding="UTF-8"?>
<svg id="Layer_1" data-name="Layer 1" xmlns="http://www.w3.org/2000/svg" viewBox="0 0 2670 286">
  <g>
    <path d="M244.52,3.8h23.74c1.23,0,2.08,1.23,1.65,2.38-3.36,8.85-12.96,29.94-35.9,46.01-1.23.86-2.9-.11-2.77-1.6,2.42-27.25,9.14-41.13,11.74-45.88.31-.56.9-.91,1.54-.91Z" style="fill: #a9d962; stroke-width: 0px;"/>
    <path d="M223.76,6.28c-3.55,7.97-6.23,16.8-8.23,26.03-.3,1.38-2.01,1.87-2.99.85-3.77-3.96-10.94-12.77-16.67-26.95-.47-1.15.39-2.41,1.63-2.41h24.65c1.28,0,2.12,1.31,1.6,2.48Z" style="fill: #78a658; stroke-width: 0px;"/>
    <path d="M106.26,3.8h11.06c.99,0,1.78.82,1.76,1.81-1.1,44.48,2.18,84.77,4.32,107.87.11,1.21-1,2.16-2.18,1.87-5.61-1.41-19.45-4.93-29.58-7.72-.55-.15-.99-.56-1.19-1.1-3.45-9.66-12.32-35.29-15.39-45.54-.24-.81.13-1.67.87-2.06,16.5-8.68,25.32-31.14,28.57-53.61.13-.87.86-1.52,1.74-1.52Z" style="fill: #4d7343; stroke-width: 0px;"/>
    <path d="M97.25,5.9c-2.11,10.56-8.23,33.96-23.04,43.24-1.01.63-2.35.09-2.64-1.07-4.4-17.48-6.75-32.88-7.75-42.33-.11-1.04.71-1.94,1.75-1.94h29.96c1.11,0,1.94,1.01,1.73,2.1Z" style="fill: #78a658; stroke-width: 0px;"/>
    <path d="M5.76,3.8h41.04c.94,0,1.71.74,1.75,1.69.49,11.35,1.73,22.62,3.55,33.81.19,1.2-.86,2.24-2.06,2.02-19.16-3.51-34.16-7.92-44.97-12.46-.65-.27-1.07-.91-1.07-1.62V5.56c0-.97.79-1.76,1.76-1.76Z" style="fill: #a9d962; stroke-width: 0px;"/>
    <path d="M6.45,39.43c17.22,7.46,37.36,12.33,47.25,14.48.68.15,1.2.68,1.34,1.36,2.92,14.09,6.59,28.06,10.61,41.88.39,1.35-.87,2.59-2.21,2.17-11.14-3.48-39.91-12.76-58.55-23.24-.55-.31-.89-.9-.89-1.53v-33.51c0-1.27,1.29-2.12,2.45-1.61Z" style="fill: #78a658; stroke-width: 0px;"/>
    <path d="M4,280.76v-48.38c0-1.27,1.29-2.12,2.46-1.62,12.73,5.51,58.11,23.32,135.7,24.3.84.01,1.55.61,1.71,1.43,1.53,7.98,3.11,15.96,4.76,23.91.23,1.09-.61,2.11-1.72,2.11H5.76c-.97,0-1.76-.79-1.76-1.76Z" style="fill: #bad3d9; stroke-width: 0px;"/>
    <path d="M282.03,178.31c-7.51,5.79-15.46,11.13-23.64,16.02-1.11.67-2.54-.05-2.66-1.34-.85-9.24-1.59-40.16,23.93-67.82,1.09-1.18,3.06-.42,3.06,1.18v50.55c0,.55-.25,1.06-.68,1.4Z" style="fill: #a9d962; stroke-width: 0px;"/>
    <path d="M282.24,58.14c-11.18,11.89-26.56,23.2-48.86,33.59-1.13.52-2.43-.25-2.51-1.49-.44-7.71-.65-15.67-.49-23.66.01-.6.33-1.16.85-1.47,5.74-3.49,34.93-22.48,46.13-60.05.22-.75.91-1.27,1.69-1.27h1.9c.97,0,1.76.79,1.76,1.76v51.38c0,.45-.17.88-.48,1.21Z" style="fill: #78a658; stroke-width: 0px;"/>
    <path d="M50.48,216.19c-6.91-24.08-22.93-48.31-43.49-68.4-1.11-1.09-2.99-.29-2.99,1.26v53.18c0,.68.39,1.3.99,1.59,17.41,8.37,36.3,13,43.41,14.57,1.3.29,2.44-.92,2.07-2.2Z" style="fill: #78a658; stroke-width: 0px;"/>
    <path d="M246.08,179.66l-7.87-7.27c-1.13-1.04-2.95-.24-2.95,1.29v30.31c0,1.31,1.38,2.16,2.55,1.57,2.81-1.41,5.6-2.86,8.38-4.34.64-.34,1-1.05.91-1.78-.76-6.08-.89-12.24-.46-18.37.04-.53-.16-1.05-.56-1.42Z" style="fill: #4d7343; stroke-width: 0px;"/>
    <path d="M207.68,129.75l38.57,35.98c.99.92,2.59.43,2.91-.88,1.33-5.49,3.12-10.87,5.35-16.02,6.11-14.13,15.91-26.56,27.59-36.52.39-.33.62-.82.62-1.34v-19.84c0-1.47-1.7-2.29-2.85-1.37-20.75,16.43-45.95,28.45-71.54,37.04-1.26.42-1.61,2.04-.63,2.95Z" style="fill: #4d7343; stroke-width: 0px;"/>
    <path d="M173.02,97.41l11.41,10.65c.44.41,1.07.57,1.65.42,7.9-2.07,15.74-4.43,23.46-7.11.73-.25,1.21-.96,1.18-1.73-.62-16.48-.23-35.2,2.32-53.22.08-.57-.12-1.14-.54-1.53-3.42-3.2-18.21-18.61-23.21-39.75-.19-.79-.9-1.34-1.71-1.34h-18.61c-.98,0-1.77.8-1.76,1.78.21,13.51,2.72,66.28,5.26,90.73.04.42.24.81.55,1.1Z" style="fill: #4d7343; stroke-width: 0px;"/>
    <path d="M82.77,172.39l-8.32,7.68c-.71.66-1.82.62-2.48-.09l-4.63-4.96c-.66-.71-.63-1.82.09-2.49l36.78-34.31c1-.93.61-2.59-.7-2.97-28.91-8.59-68.4-21.45-96.94-36.12-1.17-.6-2.56.25-2.56,1.56v33.97c0,.52.23,1,.62,1.34,38.88,33.08,52.31,67.15,56.5,83.85.17.67.72,1.18,1.4,1.3,7.05,1.24,14.13,2.26,21.24,3.08,1.04.12,1.96-.7,1.96-1.75v-48.81c0-1.53-1.83-2.33-2.95-1.29Z" style="fill: #4d7343; stroke-width: 0px;"/>
    <path d="M159.29,100.95l-62.71,58.64c-.36.33-.56.8-.56,1.29v59.46c0,.97.79,1.76,1.76,1.76h41.4c.97,0,1.76-.79,1.76-1.76v-56.32c0-.97.79-1.76,1.76-1.76h34.87c.97,0,1.76.79,1.76,1.76v56.32c0,.97.79,1.76,1.76,1.76h18.08c.21,0,.41-.04.61-.11,8.16-2.97,16.22-6.25,24.15-9.82.63-.28,1.04-.92,1.04-1.61v-49.69c0-.49-.2-.95-.56-1.29l-62.71-58.64c-.68-.63-1.73-.63-2.4,0Z" style="fill: #fff; stroke-width: 0px;"/>
    <path d="M198.81,253.86c1.33,5.85,5.2,22.44,6.34,27.3.19.8.9,1.36,1.71,1.36h74.1c.97,0,1.76-.79,1.76-1.76v-70.08c0-1.43-1.62-2.26-2.78-1.43-34.13,24.5-72.27,39.62-80.04,42.58-.82.31-1.28,1.17-1.09,2.03Z" style="fill: #bad3d9; stroke-width: 0px;"/>
  </g>
  <g>
    <path d="M452.8,180.3c-3.67,3.87-7.87,6.9-12.6,9.1-4.73,2.2-9.97,3.3-15.7,3.3-8.27,0-15.6-2.03-22-6.1-6.4-4.07-11.4-9.67-15-16.8-3.6-7.13-5.4-15.37-5.4-24.7s1.77-17.53,5.3-24.6c3.53-7.07,8.47-12.63,14.8-16.7,6.33-4.07,13.57-6.1,21.7-6.1,5.6,0,10.8,1.03,15.6,3.1,4.8,2.07,9.07,4.93,12.8,8.6,3.73,3.67,6.73,7.97,9,12.9l25.4-9.4c-3.33-7.87-8.1-14.83-14.3-20.9-6.2-6.07-13.43-10.8-21.7-14.2-8.27-3.4-17.2-5.1-26.8-5.1-13.6,0-25.63,3.1-36.1,9.3-10.47,6.2-18.7,14.73-24.7,25.6-6,10.87-9,23.37-9,37.5s3,26.63,9,37.5c6,10.87,14.27,19.4,24.8,25.6,10.53,6.2,22.6,9.3,36.2,9.3,9.73,0,18.73-1.73,27-5.2,8.27-3.47,15.5-8.33,21.7-14.6,6.2-6.27,10.97-13.47,14.3-21.6l-25.4-9.2c-2.27,5.07-5.23,9.53-8.9,13.4Z" style="fill: #fff; stroke-width: 0px;"/>
    <path d="M574.3,119.4c-7.87-4.47-16.93-6.7-27.2-6.7s-19.13,2.23-27,6.7c-7.87,4.47-14,10.63-18.4,18.5-4.4,7.87-6.6,16.93-6.6,27.2s2.23,19.33,6.7,27.2c4.47,7.87,10.63,14.03,18.5,18.5,7.87,4.47,16.93,6.7,27.2,6.7s19.1-2.23,26.9-6.7c7.8-4.47,13.9-10.63,18.3-18.5,4.4-7.87,6.6-16.93,6.6-27.2s-2.2-19.33-6.6-27.2c-4.4-7.87-10.53-14.03-18.4-18.5ZM569.1,179.6c-2.13,4.2-5.03,7.5-8.7,9.9-3.67,2.4-7.97,3.6-12.9,3.6s-9.33-1.2-13.2-3.6c-3.87-2.4-6.87-5.7-9-9.9-2.13-4.2-3.2-9.03-3.2-14.5s1.07-10.3,3.2-14.5c2.13-4.2,5.1-7.5,8.9-9.9s8.17-3.6,13.1-3.6,9.1,1.2,12.9,3.6,6.77,5.7,8.9,9.9c2.13,4.2,3.2,9.03,3.2,14.5s-1.07,10.3-3.2,14.5Z" style="fill: #fff; stroke-width: 0px;"/>
    <path d="M731.09,112.7c-7.07,0-13.27,1.83-18.6,5.5-5.33,3.67-9.47,8.9-12.4,15.7-2.53-7.2-6.57-12.53-12.1-16-5.53-3.47-12.37-5.2-20.5-5.2-5.87,0-11.2,1.3-16,3.9s-8.73,6.43-11.8,11.5l-1.2-13h-24.8v100h26.4v-52.4c0-8.4,1.7-14.73,5.1-19,3.4-4.27,8.3-6.33,14.7-6.2,3.47,0,6.5.83,9.1,2.5,2.6,1.67,4.6,4.37,6,8.1,1.4,3.73,2.1,9,2.1,15.8v51.2h26.4v-52.4c0-8.4,1.73-14.73,5.2-19,3.47-4.27,8.4-6.33,14.8-6.2,3.47,0,6.47.83,9,2.5,2.53,1.67,4.53,4.37,6,8.1,1.47,3.73,2.2,9,2.2,15.8v51.2h26.4v-57.2c0-15.33-3.07-26.7-9.2-34.1-6.13-7.4-15.07-11.1-26.8-11.1Z" style="fill: #fff; stroke-width: 0px;"/>
    <path d="M902.49,112.7c-7.07,0-13.27,1.83-18.6,5.5-5.33,3.67-9.47,8.9-12.4,15.7-2.53-7.2-6.57-12.53-12.1-16-5.53-3.47-12.37-5.2-20.5-5.2-5.87,0-11.2,1.3-16,3.9-4.8,2.6-8.73,6.43-11.8,11.5l-1.2-13h-24.8v100h26.4v-52.4c0-8.4,1.7-14.73,5.1-19,3.4-4.27,8.3-6.33,14.7-6.2,3.47,0,6.5.83,9.1,2.5,2.6,1.67,4.6,4.37,6,8.1,1.4,3.73,2.1,9,2.1,15.8v51.2h26.4v-52.4c0-8.4,1.73-14.73,5.2-19,3.47-4.27,8.4-6.33,14.8-6.2,3.47,0,6.47.83,9,2.5,2.53,1.67,4.53,4.37,6,8.1,1.47,3.73,2.2,9,2.2,15.8v51.2h26.4v-57.2c0-15.33-3.07-26.7-9.2-34.1-6.13-7.4-15.07-11.1-26.8-11.1Z" style="fill: #fff; stroke-width: 0px;"/>
    <path d="M1030.29,119.4c-7.87-4.47-16.93-6.7-27.2-6.7s-19.13,2.23-27,6.7c-7.87,4.47-14,10.63-18.4,18.5-4.4,7.87-6.6,16.93-6.6,27.2s2.23,19.33,6.7,27.2c4.47,7.87,10.63,14.03,18.5,18.5,7.87,4.47,16.93,6.7,27.2,6.7s19.1-2.23,26.9-6.7c7.8-4.47,13.9-10.63,18.3-18.5,4.4-7.87,6.6-16.93,6.6-27.2s-2.2-19.33-6.6-27.2c-4.4-7.87-10.53-14.03-18.4-18.5ZM1025.09,179.6c-2.13,4.2-5.03,7.5-8.7,9.9-3.67,2.4-7.97,3.6-12.9,3.6s-9.33-1.2-13.2-3.6c-3.87-2.4-6.87-5.7-9-9.9-2.13-4.2-3.2-9.03-3.2-14.5s1.07-10.3,3.2-14.5c2.13-4.2,5.1-7.5,8.9-9.9,3.8-2.4,8.17-3.6,13.1-3.6s9.1,1.2,12.9,3.6c3.8,2.4,6.77,5.7,8.9,9.9,2.13,4.2,3.2,9.03,3.2,14.5s-1.07,10.3-3.2,14.5Z" style="fill: #fff; stroke-width: 0px;"/>
    <path d="M1145.29,117.5c-5.6-3.2-12.33-4.8-20.2-4.8s-14.23,1.97-19.9,5.9c-3.73,2.59-6.89,5.94-9.52,10.02l-1.18-13.52h-24.8v100h26.4v-52.4c0-8.4,1.83-14.73,5.5-19,3.67-4.27,8.9-6.33,15.7-6.2,3.73,0,7,.83,9.8,2.5,2.8,1.67,4.97,4.37,6.5,8.1,1.53,3.73,2.3,9,2.3,15.8v51.2h26.4v-56.6c.13-10.67-1.27-19.37-4.2-26.1-2.93-6.73-7.2-11.7-12.8-14.9Z" style="fill: #fff; stroke-width: 0px;"/>
    <path d="M1256.19,117.5c-5.53-3.2-12.3-4.8-20.3-4.8s-14.23,1.97-19.9,5.9c-3.52,2.45-6.56,5.56-9.1,9.35v-52.85h-26.4v140h26.4v-52.4c0-8.4,1.83-14.73,5.5-19,3.67-4.27,8.9-6.33,15.7-6.2,3.73,0,7,.83,9.8,2.5,2.8,1.67,5,4.37,6.6,8.1,1.6,3.73,2.4,9,2.4,15.8v51.2h26.4v-56.6c0-10.67-1.47-19.37-4.4-26.1-2.93-6.73-7.17-11.7-12.7-14.9Z" style="fill: #fff; stroke-width: 0px;"/>
    <path d="M1357.19,118.5c-6.73-3.87-15.17-5.8-25.3-5.8-8.4,0-15.5,1.3-21.3,3.9s-10.5,5.93-14.1,10c-3.6,4.07-6.33,8.23-8.2,12.5l23.2,8c2.4-3.87,5.33-6.73,8.8-8.6,3.47-1.87,7.33-2.8,11.6-2.8,4.67,0,8.37,1.17,11.1,3.5,2.73,2.33,4.73,5.63,6,9.9.51,1.72.91,3.59,1.22,5.6h-23.52c-12.93,0-22.97,2.7-30.1,8.1-7.13,5.4-10.7,13.43-10.7,24.1,0,9.73,3.3,17.27,9.9,22.6,6.6,5.33,15.9,8,27.9,8s20.77-3.8,25.9-11.4c.58-.86,1.12-1.76,1.64-2.7l.46,11.7h24.6l.6-55.4c.13-9.6-1.43-17.9-4.7-24.9-3.27-7-8.27-12.43-15-16.3ZM1347.89,184.4c-2,3.27-4.7,5.93-8.1,8-3.4,2.07-7.3,3.1-11.7,3.1-4.8,0-8.53-.83-11.2-2.5-2.67-1.67-4-3.97-4-6.9,0-3.73,1.67-6.63,5-8.7,3.33-2.07,9.33-3.1,18-3.1h15c0,3.47-1,6.83-3,10.1Z" style="fill: #fff; stroke-width: 0px;"/>
    <path d="M1459.29,167.5c0,8.27-1.8,14.57-5.4,18.9-3.6,4.33-8.87,6.43-15.8,6.3-3.6,0-6.83-.83-9.7-2.5-2.87-1.67-5.07-4.4-6.6-8.2-1.53-3.8-2.3-9.03-2.3-15.7v-51.2h-26.4v56.6c0,10.67,1.43,19.37,4.3,26.1,2.87,6.73,7.1,11.7,12.7,14.9,5.6,3.2,12.4,4.8,20.4,4.8s14.2-1.97,19.8-5.9c3.66-2.57,6.8-5.89,9.43-9.94l1.17,13.44h24.8v-100h-26.4v52.4Z" style="fill: #fff; stroke-width: 0px;"/>
    <path d="M1571.98,162.6c-3.93-3.53-9.17-6.1-15.7-7.7l-13-3.2c-3.47-.8-6.13-1.77-8-2.9-1.87-1.13-2.8-2.57-2.8-4.3,0-2.67.97-4.77,2.9-6.3,1.93-1.53,4.7-2.3,8.3-2.3s7.2.83,10.8,2.5c3.6,1.67,5.87,3.83,6.8,6.5l21.8-10c-1.47-4.4-4.13-8.27-8-11.6-3.87-3.33-8.5-5.93-13.9-7.8-5.4-1.87-11.23-2.8-17.5-2.8-12.13,0-21.5,2.8-28.1,8.4s-9.9,13.53-9.9,23.8c0,7.2,2.77,13.57,8.3,19.1,5.53,5.53,13.1,9.57,22.7,12.1l9.2,2.4c3.33.8,5.97,1.77,7.9,2.9,1.93,1.13,2.9,2.9,2.9,5.3s-1.2,4.23-3.6,5.5c-2.4,1.27-5.8,1.9-10.2,1.9s-8.53-1.17-12-3.5c-3.47-2.33-6.2-5.1-8.2-8.3l-22.6,10.4c2.4,5.33,5.73,9.83,10,13.5,4.27,3.67,9.2,6.47,14.8,8.4,5.6,1.93,11.6,2.9,18,2.9,7.73,0,14.63-1.27,20.7-3.8,6.07-2.53,10.87-6.1,14.4-10.7,3.53-4.6,5.3-9.9,5.3-15.9,0-4.13-.9-8.37-2.7-12.7-1.8-4.33-4.67-8.27-8.6-11.8Z" style="fill: #fff; stroke-width: 0px;"/>
    <polygon points="1652.08 215.1 1679.48 215.1 1679.48 158.7 1731.48 158.7 1731.48 133.7 1679.48 133.7 1679.48 100.1 1741.88 100.1 1741.88 75.1 1652.08 75.1 1652.08 215.1" style="fill: #fff; stroke-width: 0px;"/>
    <path d="M1828.28,119.4c-7.87-4.47-16.93-6.7-27.2-6.7s-19.13,2.23-27,6.7c-7.87,4.47-14,10.63-18.4,18.5-4.4,7.87-6.6,16.93-6.6,27.2s2.23,19.33,6.7,27.2c4.47,7.87,10.63,14.03,18.5,18.5,7.87,4.47,16.93,6.7,27.2,6.7s19.1-2.23,26.9-6.7c7.8-4.47,13.9-10.63,18.3-18.5,4.4-7.87,6.6-16.93,6.6-27.2s-2.2-19.33-6.6-27.2c-4.4-7.87-10.53-14.03-18.4-18.5ZM1823.08,179.6c-2.13,4.2-5.03,7.5-8.7,9.9-3.67,2.4-7.97,3.6-12.9,3.6s-9.33-1.2-13.2-3.6c-3.87-2.4-6.87-5.7-9-9.9-2.13-4.2-3.2-9.03-3.2-14.5s1.07-10.3,3.2-14.5c2.13-4.2,5.1-7.5,8.9-9.9s8.17-3.6,13.1-3.6,9.1,1.2,12.9,3.6,6.77,5.7,8.9,9.9c2.13,4.2,3.2,9.03,3.2,14.5s-1.07,10.3-3.2,14.5Z" style="fill: #fff; stroke-width: 0px;"/>
    <path d="M1932.08,167.5c0,8.27-1.8,14.57-5.4,18.9-3.6,4.33-8.87,6.43-15.8,6.3-3.6,0-6.83-.83-9.7-2.5-2.87-1.67-5.07-4.4-6.6-8.2-1.53-3.8-2.3-9.03-2.3-15.7v-51.2h-26.4v56.6c0,10.67,1.43,19.37,4.3,26.1,2.87,6.73,7.1,11.7,12.7,14.9,5.6,3.2,12.4,4.8,20.4,4.8s14.2-1.97,19.8-5.9c3.66-2.57,6.8-5.89,9.43-9.94l1.17,13.44h24.8v-100h-26.4v52.4Z" style="fill: #fff; stroke-width: 0px;"/>
    <path d="M2053.87,117.5c-5.6-3.2-12.33-4.8-20.2-4.8s-14.23,1.97-19.9,5.9c-3.73,2.59-6.89,5.94-9.52,10.02l-1.18-13.52h-24.8v100h26.4v-52.4c0-8.4,1.83-14.73,5.5-19,3.67-4.27,8.9-6.33,15.7-6.2,3.73,0,7,.83,9.8,2.5,2.8,1.67,4.97,4.37,6.5,8.1,1.53,3.73,2.3,9,2.3,15.8v51.2h26.4v-56.6c.13-10.67-1.27-19.37-4.2-26.1-2.93-6.73-7.2-11.7-12.8-14.9Z" style="fill: #fff; stroke-width: 0px;"/>
    <path d="M2158.67,128.33c-2.44-3.66-5.33-6.75-8.7-9.23-5.8-4.27-12.9-6.4-21.3-6.4-9.2,0-17.17,2.13-23.9,6.4-6.73,4.27-11.97,10.3-15.7,18.1-3.73,7.8-5.6,17.1-5.6,27.9s1.87,19.93,5.6,27.8c3.73,7.87,8.97,13.93,15.7,18.2,6.73,4.27,14.7,6.4,23.9,6.4,8.4,0,15.5-2.13,21.3-6.4,3.53-2.6,6.54-5.87,9.06-9.8l1.04,13.8h25V75.1h-26.4v53.23ZM2147.57,189.7c-3.53,2.4-7.57,3.6-12.1,3.6-4.8,0-9.03-1.2-12.7-3.6-3.67-2.4-6.57-5.73-8.7-10-2.13-4.27-3.2-9.13-3.2-14.6s1.07-10.33,3.2-14.6c2.13-4.27,5-7.57,8.6-9.9,3.6-2.33,7.8-3.5,12.6-3.5s8.77,1.17,12.3,3.5c3.53,2.33,6.3,5.63,8.3,9.9,1.49,3.17,2.42,6.68,2.8,10.51v8.18c-.38,3.84-1.31,7.34-2.8,10.51-2,4.27-4.77,7.6-8.3,10Z" style="fill: #fff; stroke-width: 0px;"/>
    <path d="M2270.77,118.5c-6.73-3.87-15.17-5.8-25.3-5.8-8.4,0-15.5,1.3-21.3,3.9-5.8,2.6-10.5,5.93-14.1,10-3.6,4.07-6.33,8.23-8.2,12.5l23.2,8c2.4-3.87,5.33-6.73,8.8-8.6,3.47-1.87,7.33-2.8,11.6-2.8,4.67,0,8.37,1.17,11.1,3.5,2.73,2.33,4.73,5.63,6,9.9.51,1.72.91,3.59,1.22,5.6h-23.52c-12.93,0-22.97,2.7-30.1,8.1-7.13,5.4-10.7,13.43-10.7,24.1,0,9.73,3.3,17.27,9.9,22.6,6.6,5.33,15.9,8,27.9,8s20.77-3.8,25.9-11.4c.58-.86,1.12-1.76,1.64-2.7l.46,11.7h24.6l.6-55.4c.13-9.6-1.43-17.9-4.7-24.9-3.27-7-8.27-12.43-15-16.3ZM2261.47,184.4c-2,3.27-4.7,5.93-8.1,8-3.4,2.07-7.3,3.1-11.7,3.1-4.8,0-8.53-.83-11.2-2.5-2.67-1.67-4-3.97-4-6.9,0-3.73,1.67-6.63,5-8.7,3.33-2.07,9.33-3.1,18-3.1h15c0,3.47-1,6.83-3,10.1Z" style="fill: #fff; stroke-width: 0px;"/>
    <path d="M2357.87,192.2c-1.6.6-3.07.9-4.4.9-3.6,0-6.33-1.1-8.2-3.3-1.87-2.2-2.8-5.43-2.8-9.7v-42.6h25v-22.4h-25v-31.2h-26.4v31.2h-16.2v22.4h16.2v48.4c0,10.13,2.83,17.93,8.5,23.4,5.67,5.47,14.03,8.2,25.1,8.2,3.87,0,7.77-.77,11.7-2.3,3.93-1.53,7.5-3.5,10.7-5.9l-9.2-19.8c-1.73,1.2-3.4,2.1-5,2.7Z" style="fill: #fff; stroke-width: 0px;"/>
    <path d="M2400.67,68.5c-4,0-7.53,1.5-10.6,4.5-3.07,3-4.6,6.57-4.6,10.7s1.53,7.7,4.6,10.7c3.07,3,6.6,4.5,10.6,4.5s7.7-1.5,10.7-4.5,4.5-6.57,4.5-10.7-1.5-7.7-4.5-10.7-6.57-4.5-10.7-4.5Z" style="fill: #fff; stroke-width: 0px;"/>
    <rect x="2387.47" y="115.1" width="26.4" height="100" style="fill: #fff; stroke-width: 0px;"/>
    <path d="M2509.07,119.4c-7.87-4.47-16.93-6.7-27.2-6.7s-19.13,2.23-27,6.7c-7.87,4.47-14,10.63-18.4,18.5-4.4,7.87-6.6,16.93-6.6,27.2s2.23,19.33,6.7,27.2c4.47,7.87,10.63,14.03,18.5,18.5,7.87,4.47,16.93,6.7,27.2,6.7s19.1-2.23,26.9-6.7c7.8-4.47,13.9-10.63,18.3-18.5,4.4-7.87,6.6-16.93,6.6-27.2s-2.2-19.33-6.6-27.2c-4.4-7.87-10.53-14.03-18.4-18.5ZM2503.87,179.6c-2.13,4.2-5.03,7.5-8.7,9.9-3.67,2.4-7.97,3.6-12.9,3.6s-9.33-1.2-13.2-3.6c-3.87-2.4-6.87-5.7-9-9.9-2.13-4.2-3.2-9.03-3.2-14.5s1.07-10.3,3.2-14.5c2.13-4.2,5.1-7.5,8.9-9.9,3.8-2.4,8.17-3.6,13.1-3.6s9.1,1.2,12.9,3.6c3.8,2.4,6.77,5.7,8.9,9.9,2.13,4.2,3.2,9.03,3.2,14.5s-1.07,10.3-3.2,14.5Z" style="fill: #fff; stroke-width: 0px;"/>
    <path d="M2636.86,132.4c-2.93-6.73-7.2-11.7-12.8-14.9-5.6-3.2-12.33-4.8-20.2-4.8s-14.23,1.97-19.9,5.9c-3.73,2.59-6.89,5.94-9.52,10.02l-1.18-13.52h-24.8v100h26.4v-52.4c0-8.4,1.83-14.73,5.5-19,3.67-4.27,8.9-6.33,15.7-6.2,3.73,0,7,.83,9.8,2.5,2.8,1.67,4.97,4.37,6.5,8.1,1.53,3.73,2.3,9,2.3,15.8v51.2h26.4v-56.6c.13-10.67-1.27-19.37-4.2-26.1Z" style="fill: #fff; stroke-width: 0px;"/>
  </g>
</svg>