<svg version="1.1" viewBox="0.0 0.0 139.83989501312337 104.76115485564304" fill="none" stroke="none" stroke-linecap="square" stroke-miterlimit="10" xmlns:xlink="http://www.w3.org/1999/xlink" xmlns="http://www.w3.org/2000/svg"><clipPath id="p.0"><path d="m0 0l139.83989 0l0 104.761154l-139.83989 0l0 -104.761154z" clip-rule="nonzero"/></clipPath><g clip-path="url(#p.0)"><path fill="#000000" fill-opacity="0.0" d="m0 0l139.83989 0l0 104.761154l-139.83989 0z" fill-rule="evenodd"/><path fill="#000000" fill-opacity="0.0" d="m-32.70341 -35.110237l193.13387 0l0 174.51968l-193.13387 0z" fill-rule="evenodd"/><path fill="#ffffff" d="m2.6757612 97.46398q5.640625 -17.03125 10.75 -33.40625q2.1875 -6.921875 4.484374 -14.46875q2.3125 -7.546875 4.609375 -14.96875q2.296875 -7.4375 4.28125 -14.34375q1.984375 -6.906249 3.53125 -12.796874q7.031252 0 13.296877 -0.765625q6.28125 -0.765625 13.578125 -1.40625q-0.390625 2.8125 -0.84375 6.328125q-0.4375 3.515625 -1.015625 7.359374q-0.578125 3.84375 -1.21875 7.9375q-0.640625 4.09375 -1.53125 10.5q-0.890625 6.390625 -2.4375 16.0l1.671875 0q3.71875 -9.734375 6.140625 -16.1875q2.4375 -6.46875 3.96875 -10.5625q1.53125 -4.09375 3.1249962 -8.0q1.609375 -3.906249 3.078125 -7.421874q1.484375 -3.53125 2.765625 -6.21875q3.1875 -0.25 6.0 -0.625q2.828125 -0.390625 5.640625 -0.84375q2.8125 -0.453125 5.6875 -0.890625q2.890625 -0.453125 6.34375 -1.09375q-1.28125 7.421875 -2.4375 15.234374q-1.140625 7.8125 -2.046875 15.5625q-0.890625 7.734375 -1.71875 15.28125q-0.828125 7.546875 -1.46875 14.34375q-1.546875 15.859375 -2.6875 30.96875l-22.281246 3.96875q0 -0.640625 0.1875 -3.453125q0.203125 -2.8125 0.515625 -6.90625q0.328125 -4.109375 0.890625 -9.09375q0.5781212 -5.0 1.1562462 -9.984375q0.578125 -5.0 1.21875 -9.671875q0.640625 -4.671875 1.28125 -8.0l-1.15625 0q-1.78125 5.375 -3.9687462 11.328125q-2.171875 5.953125 -4.421875 12.109375q-2.234375 6.140625 -4.40625 12.03125q-2.171875 5.875 -3.84375 11.265625q-4.46875 0.125 -7.671875 0.3125q-3.203125 0.1875 -7.421875 0.453125l4.09375 -47.5l-1.921875 0q-0.25 1.671875 -1.28125 5.578125q-1.03125 3.90625 -2.375 8.96875q-1.3437519 5.046875 -2.875002 10.484375q-1.53125 5.4375 -2.875 10.109375q-1.34375 4.671875 -2.25 7.6875q-0.890625 3.0 -1.015625 3.390625l-21.125 1.40625zm110.72715 -29.578125q-3.71875 0 -7.4375 0.265625q-3.703125 0.25 -7.40625 0.515625q3.953125 -15.75 7.734375 -31.359375q3.78125 -15.625 7.875 -31.359375q2.4375 -0.390625 5.5625 -0.765625q3.140625 -0.390625 6.34375 -0.90625q3.203125 -0.515625 6.203125 -0.890625q3.015625 -0.390625 5.0625 -0.765625q-6.921875 16.125 -12.625 32.453125q-5.6875 16.3125 -11.3125 32.8125zm1.28125 20.109375q0 2.421875 -1.09375 4.859375q-1.09375 2.4375 -3.140625 4.296875q-2.046875 1.84375 -5.125 2.921875q-3.0625 1.09375 -7.03125 1.09375q-2.6875 0 -4.8593826 -1.03125q-2.171875 -1.015625 -3.515625 -2.734375q-1.34375 -1.734375 -2.125 -3.90625q-0.765625 -2.171875 -0.765625 -4.359375q0 -2.421875 0.765625 -4.65625q0.78125 -2.25 2.375 -3.96875q1.59375 -1.734375 3.953125 -2.890625q2.3750076 -1.15625 5.7031326 -1.15625q7.4375 0 11.140625 3.53125q3.71875 3.515625 3.71875 8.0z" fill-rule="nonzero"/></g></svg>